{"title":"Miklos Jancso - Meg ker a nep [Red Psalm] (1972)","uid":6219436,"size":1150200044,"categoryP":"video","categoryS":"movies","magnet":"?xt=urn:btih:6c3b8117fd03dcdff47dcb90a6f2a65360ef7406&amp;dn=Miklos+Jancso+-+Meg+ker+a+nep+%5BRed+Psalm%5D+%281972%29&amp;tr=udp%3A%2F%2Ftracker.openbittorrent.com%3A80&amp;tr=udp%3A%2F%2Fopen.demonii.com%3A1337&amp;tr=udp%3A%2F%2Ftracker.coppersurfer.tk%3A6969&amp;tr=udp%3A%2F%2Fexodus.desync.com%3A6969","seeders":4,"leechers":1,"uploader":"mfccorrea","files":4,"time":1299278416,"description":"Red Psalm, or MÃƒÂ©g kÃƒÂ©r a nÃƒÂ©p (literally: &quot;The People Still Ask&quot;) is one of the great Hungarian film director Miklos Jancso's best-known films. It recounts quite poetically the story of a peasant uprising on an estate in Hungary in the 1890s. It examines the nature of revolt, and the issues of morality and violence. This film uses symbolic imagery and language involving the color red to great effect and was filmed in a virtuoso manner, using only 28 shots. Reviewers reported that Jancso's storytelling technique most closely resembled that used in ballet. The pacifistic peasants, who seek some basic rights, are in a standoff with local authorities and later, the army. Everyone takes a break in the confrontation in order to celebrate a festival. Afterwards, the peasants resume their strike and meet with a tragic end. \n\n   General\n      Complete name : Meg ker a nep.avi\n      Format : AVI\n      Format/Info : Audio Video Interleave\n      File size : 1.07 GiB\n      Duration : 1h 21mn\n      Overall bit rate : 1 885 Kbps\n      Writing application : VirtualDubMod 1.5.10.2 (build 2540/release)\n      Writing library : VirtualDubMod build 2540/release\n   Video #0\n      ID : 0\n      Format : MPEG-4 Visual\n      Format profile : AdvancedSimple@L5\n      Format settings, BVOP : Yes\n      Format settings, QPel : No\n      Format settings, GMC : No warppoints\n      Format settings, Matrix : Default (MPEG)\n      Codec ID : XVID\n      Codec ID/Hint : XviD\n      Duration : 1h 21mn\n      Bit rate : 1 619 Kbps\n      Width : 640 pixels\n      Height : 480 pixels\n      Display aspect ratio : 4:3\n      Frame rate : 25.000 fps\n      Resolution : 24 bits\n      Colorimetry : 4:2:0\n      Scan type : Progressive\n      Bits/(Pixel*Frame) : 0.211\n      Stream size : 942 MiB (86%)\n      Writing library : XviD 1.1.2 (UTC 2006-11-01)\n   Audio #1\n      ID : 1\n      Format : AC-3\n      Format/Info : Audio Coding 3\n      Format profile : Dolby Digital\n      Codec ID : 2000\n      Duration : 1h 21mn\n      Bit rate mode : Constant\n      Bit rate : 256 Kbps\n      Channel(s) : 2 channels\n      Channel positions : L R\n      Sampling rate : 48.0 KHz\n      Stream size : 149 MiB (14%)\n      Alignment : Split accross interleaves\n      Interleave, duration : 40 ms (1.00 video frame)\n      Interleave, preload duration : 500 ms\n &lt;a href=&quot;\nhttp://www.imdb.com/title/tt0067467/&quot; rel=&quot;nofollow&quot; target=&quot;_NEW&quot;&gt;\nhttp://www.imdb.com/title/tt0067467/&lt;/a&gt;\n\nHungarian audio; English, French and Portuguese subtitles\n\nPosted at KG by crasus, whom we thank\n\nMiklos Jancso - Meg ker a nep [Red Psalm] (1972)","torrent":{"xt":"urn:btih:6c3b8117fd03dcdff47dcb90a6f2a65360ef7406","amp;dn":"Miklos+Jancso+-+Meg+ker+a+nep+%5BRed+Psalm%5D+%281972%29","amp;tr":["udp%3A%2F%2Ftracker.openbittorrent.com%3A80","udp%3A%2F%2Fopen.demonii.com%3A1337","udp%3A%2F%2Ftracker.coppersurfer.tk%3A6969","udp%3A%2F%2Fexodus.desync.com%3A6969"],"infoHash":"6c3b8117fd03dcdff47dcb90a6f2a65360ef7406","infoHashBuffer":{"type":"Buffer","data":[108,59,129,23,253,3,220,223,244,125,203,144,166,242,166,83,96,239,116,6]},"announce":[],"urlList":[]}}